<svg width="48" height="46" viewBox="0 0 48 46" fill="none" xmlns="http://www.w3.org/2000/svg">
<path d="M0.00813561 6.81454H0.0170118C0.0170118 7.48132 0.759591 8.02171 1.6782 8.02867V8.02974H46.3211V8.02921C47.2441 8.02599 47.9919 7.484 47.9919 6.81454H47.9993V1.21306C47.9978 0.543065 47.2471 0 46.3211 0H1.6782C0.751456 0 0 0.544671 0 1.2152C0 1.23609 0.00739558 1.2559 0.00887482 1.27679L0.00813561 6.81454Z" fill="white"/>
<path d="M46.3203 18.9851H1.6782C0.751456 18.9851 0 19.5298 0 20.2003C0 20.2212 0.00739558 20.241 0.00887482 20.2619V25.7997H0.0177511C0.0177511 26.4664 0.760332 27.0068 1.67894 27.0138V27.0149H46.3218V27.0143C47.2448 27.0111 47.9926 26.4691 47.9926 25.7997H48V20.1982C47.997 19.5282 47.2463 18.9851 46.3203 18.9851Z" fill="white"/>
<path d="M46.3203 37.9702H1.6782C0.751456 37.9702 0 38.5149 0 39.1854C0 39.2063 0.00739558 39.2261 0.00887482 39.247V44.7848H0.0177511C0.0177511 45.4515 0.760332 45.9919 1.67894 45.9989V46H46.3218C47.2448 45.9967 47.9926 45.4537 47.9926 44.7842H48V39.1827C47.997 38.5133 47.2463 37.9702 46.3203 37.9702Z" fill="white"/>
</svg>
