<svg width="44" height="44" viewBox="0 0 44 44" fill="none" xmlns="http://www.w3.org/2000/svg">
<path d="M30.34 22L42.8488 9.49125C44.3838 7.95625 44.3838 5.4675 42.8488 3.93125L40.0687 1.15125C38.5337 -0.38375 36.045 -0.38375 34.5088 1.15125L22 13.66L9.49125 1.15125C7.95625 -0.38375 5.4675 -0.38375 3.93125 1.15125L1.15125 3.93125C-0.38375 5.46625 -0.38375 7.955 1.15125 9.49125L13.66 22L1.15125 34.5088C-0.38375 36.0438 -0.38375 38.5325 1.15125 40.0687L3.93125 42.8488C5.46625 44.3838 7.95625 44.3838 9.49125 42.8488L22 30.34L34.5088 42.8488C36.0438 44.3838 38.5337 44.3838 40.0687 42.8488L42.8488 40.0687C44.3838 38.5337 44.3838 36.045 42.8488 34.5088L30.34 22Z" fill="white"/>
</svg>
