<svg width="156" height="128" viewBox="0 0 156 128" fill="none" xmlns="http://www.w3.org/2000/svg">
<path d="M150.704 62.38C150.491 61.985 145.33 52.59 133.855 43.175C118.566 30.63 99.2549 24 77.9999 24C56.7449 24 37.4338 30.63 22.1446 43.175C10.6701 52.59 5.48432 62 5.29541 62.38C5.01823 62.8916 4.875 63.4452 4.875 64.005C4.875 64.5648 5.01823 65.1184 5.29541 65.63C5.50869 66.025 10.6701 75.415 22.1446 84.83C37.4338 97.37 56.7449 104 77.9999 104C99.2549 104 118.566 97.37 133.855 84.83C145.33 75.415 150.491 66.025 150.704 65.63C150.982 65.1184 151.125 64.5648 151.125 64.005C151.125 63.4452 150.982 62.8916 150.704 62.38ZM77.9999 96C59.2434 96 42.8573 90.405 29.2926 79.375C23.7268 74.8335 18.9916 69.6548 15.2343 64C18.9906 58.3447 23.7259 53.1659 29.2926 48.625C42.8573 37.595 59.2434 32 77.9999 32C96.7565 32 113.143 37.595 126.707 48.625C132.284 53.1648 137.029 58.3436 140.796 64C136.402 70.73 117.262 96 77.9999 96ZM77.9999 40C72.2148 40 66.5597 41.4076 61.7495 44.0447C56.9394 46.6819 53.1903 50.4302 50.9765 54.8156C48.7626 59.201 48.1834 64.0266 49.312 68.6822C50.4406 73.3377 53.2264 77.6141 57.3171 80.9706C61.4078 84.327 66.6196 86.6128 72.2936 87.5388C77.9675 88.4649 83.8487 87.9896 89.1934 86.1731C94.5382 84.3566 99.1064 81.2805 102.32 77.3337C105.534 73.3869 107.25 68.7468 107.25 64C107.242 57.6368 104.158 51.5362 98.6739 47.0367C93.1902 42.5373 85.7551 40.0066 77.9999 40ZM77.9999 80C74.1432 80 70.3731 79.0616 67.1663 77.3035C63.9596 75.5454 61.4602 73.0466 59.9843 70.1229C58.5084 67.1993 58.1222 63.9823 58.8746 60.8786C59.627 57.7749 61.4842 54.9239 64.2114 52.6863C66.9385 50.4487 70.4131 48.9248 74.1957 48.3074C77.9783 47.6901 81.8991 48.0069 85.4623 49.2179C89.0254 50.4289 92.0709 52.4797 94.2136 55.1109C96.3563 57.7421 97.4999 60.8355 97.4999 64C97.4999 68.2435 95.4455 72.3131 91.7885 75.3137C88.1316 78.3143 83.1717 80 77.9999 80Z" fill="white"/>
</svg>
