<svg width="73" height="43" viewBox="0 0 73 43" fill="none" xmlns="http://www.w3.org/2000/svg">
<path d="M0.0320001 42V0.783997H18.976C23.584 0.783997 26.9333 1.97866 29.024 4.368C31.1573 6.71466 32.224 9.91466 32.224 13.968C32.224 16.8693 31.4987 19.344 30.048 21.392C28.5973 23.44 26.5067 24.8693 23.776 25.68C24.544 26.2347 25.1413 26.832 25.568 27.472C25.9947 28.112 26.4213 28.9653 26.848 30.032L32.032 42H24.864L19.808 30.48C19.3387 29.3707 18.7627 28.5813 18.08 28.112C17.44 27.6427 16.3307 27.408 14.752 27.408H7.008V42H0.0320001ZM7.008 21.776H17.12C19.6373 21.776 21.6213 21.1573 23.072 19.92C24.5227 18.6827 25.248 16.6987 25.248 13.968C25.248 8.80533 22.752 6.224 17.76 6.224H7.008V21.776ZM57.357 42.64C50.573 42.64 45.453 40.8053 41.997 37.136C38.5837 33.4667 36.877 28.496 36.877 22.224C36.877 17.7013 37.6237 13.7973 39.117 10.512C40.6103 7.184 42.8717 4.624 45.901 2.832C48.973 1.04 52.8557 0.143997 57.549 0.143997C59.981 0.143997 62.1783 0.314664 64.141 0.655998C66.1463 0.954664 68.0237 1.40266 69.773 2V8.016C66.2743 6.736 62.3917 6.096 58.125 6.096C52.877 6.096 49.1863 7.48266 47.053 10.256C44.9623 13.0293 43.917 17.0187 43.917 22.224C43.917 26.96 45.0263 30.5653 47.245 33.04C49.4637 35.5147 52.8983 36.752 57.549 36.752C61.2183 36.752 64.1837 36.3253 66.445 35.472V23.952H56.141V19.408H72.397V39.248C71.0743 40.1013 69.1757 40.8907 66.701 41.616C64.269 42.2987 61.1543 42.64 57.357 42.64Z" fill="#00B2CA"/>
</svg>
